<mxfile host="app.diagrams.net" modified="2021-11-08T17:32:22.315Z" agent="5.0 (Macintosh; Intel Mac OS X 10_15_7) AppleWebKit/537.36 (KHTML, like Gecko) Chrome/95.0.4638.54 Safari/537.36" etag="ZXsU-NuWBYyvwrMuDaH_" version="15.7.0" type="gitlab" pages="2">
  <diagram id="6gST38PyIDntG1MuWvmC" name="Page-1">
    <mxGraphModel dx="946" dy="614" grid="1" gridSize="10" guides="1" tooltips="1" connect="1" arrows="1" fold="1" page="1" pageScale="1" pageWidth="827" pageHeight="1169" math="0" shadow="0">
      <root>
        <mxCell id="0" />
        <mxCell id="1" parent="0" />
        <mxCell id="abKNyLdUDITBR3rghVn7-3" value="" style="edgeStyle=orthogonalEdgeStyle;rounded=0;orthogonalLoop=1;jettySize=auto;html=1;" parent="1" source="abKNyLdUDITBR3rghVn7-1" target="abKNyLdUDITBR3rghVn7-2" edge="1">
          <mxGeometry relative="1" as="geometry" />
        </mxCell>
        <mxCell id="abKNyLdUDITBR3rghVn7-1" value="クライアント" style="whiteSpace=wrap;html=1;aspect=fixed;" parent="1" vertex="1">
          <mxGeometry x="30" y="200" width="80" height="80" as="geometry" />
        </mxCell>
        <mxCell id="abKNyLdUDITBR3rghVn7-2" value="" style="whiteSpace=wrap;html=1;" parent="1" vertex="1">
          <mxGeometry x="290" y="210" width="490" height="180" as="geometry" />
        </mxCell>
        <mxCell id="Czelofwl4nYaJcHQkH2W-1" value="&lt;span&gt;フロントエンド&lt;/span&gt;&lt;br&gt;&lt;span&gt;React&lt;/span&gt;" style="rounded=0;whiteSpace=wrap;html=1;" parent="1" vertex="1">
          <mxGeometry x="350" y="240" width="120" height="60" as="geometry" />
        </mxCell>
        <mxCell id="Czelofwl4nYaJcHQkH2W-2" value="Http/Https" style="text;html=1;strokeColor=none;fillColor=none;align=center;verticalAlign=middle;whiteSpace=wrap;rounded=0;" parent="1" vertex="1">
          <mxGeometry x="160" y="200" width="60" height="30" as="geometry" />
        </mxCell>
        <mxCell id="Czelofwl4nYaJcHQkH2W-6" value="データの表示、取得&#xa;" style="text;strokeColor=none;fillColor=none;align=left;verticalAlign=middle;spacingLeft=4;spacingRight=4;overflow=hidden;points=[[0,0.5],[1,0.5]];portConstraint=eastwest;rotatable=0;" parent="1" vertex="1">
          <mxGeometry x="344" y="220" width="130" height="30" as="geometry" />
        </mxCell>
        <mxCell id="Czelofwl4nYaJcHQkH2W-9" value="FW" style="html=1;points=[];perimeter=orthogonalPerimeter;" parent="1" vertex="1">
          <mxGeometry x="310" y="240" width="20" height="90" as="geometry" />
        </mxCell>
        <mxCell id="Czelofwl4nYaJcHQkH2W-10" value="&lt;span&gt;バックエンド&lt;/span&gt;&lt;br&gt;&lt;span&gt;FastAPI&lt;/span&gt;&lt;br&gt;&lt;span&gt;Python&lt;/span&gt;" style="rounded=0;whiteSpace=wrap;html=1;" parent="1" vertex="1">
          <mxGeometry x="610" y="210" width="160" height="170" as="geometry" />
        </mxCell>
        <mxCell id="Czelofwl4nYaJcHQkH2W-12" value="" style="shape=flexArrow;endArrow=classic;startArrow=classic;html=1;rounded=0;" parent="1" edge="1">
          <mxGeometry width="100" height="100" relative="1" as="geometry">
            <mxPoint x="480" y="289.5" as="sourcePoint" />
            <mxPoint x="600" y="289.5" as="targetPoint" />
          </mxGeometry>
        </mxCell>
        <mxCell id="Czelofwl4nYaJcHQkH2W-23" value="API&lt;br&gt;未定" style="text;html=1;strokeColor=none;fillColor=none;align=center;verticalAlign=middle;whiteSpace=wrap;rounded=0;" parent="1" vertex="1">
          <mxGeometry x="503" y="225" width="60" height="30" as="geometry" />
        </mxCell>
        <mxCell id="Czelofwl4nYaJcHQkH2W-24" value="" style="swimlane;startSize=0;" parent="1" vertex="1">
          <mxGeometry x="160" y="80" width="660" height="490" as="geometry" />
        </mxCell>
        <mxCell id="Czelofwl4nYaJcHQkH2W-28" value="モデル" style="shape=cylinder3;whiteSpace=wrap;html=1;boundedLbl=1;backgroundOutline=1;size=15;" parent="Czelofwl4nYaJcHQkH2W-24" vertex="1">
          <mxGeometry x="460" y="240" width="40" height="50" as="geometry" />
        </mxCell>
        <mxCell id="Czelofwl4nYaJcHQkH2W-18" value="&lt;span&gt;DB&lt;/span&gt;&lt;br&gt;&lt;span&gt;MySQL&lt;/span&gt;" style="shape=cylinder3;whiteSpace=wrap;html=1;boundedLbl=1;backgroundOutline=1;size=15;" parent="Czelofwl4nYaJcHQkH2W-24" vertex="1">
          <mxGeometry x="480" y="390" width="60" height="80" as="geometry" />
        </mxCell>
        <mxCell id="Czelofwl4nYaJcHQkH2W-20" value="" style="shape=flexArrow;endArrow=classic;startArrow=classic;html=1;rounded=0;" parent="Czelofwl4nYaJcHQkH2W-24" edge="1">
          <mxGeometry width="100" height="100" relative="1" as="geometry">
            <mxPoint x="509.5" y="390" as="sourcePoint" />
            <mxPoint x="510" y="310" as="targetPoint" />
            <Array as="points">
              <mxPoint x="510" y="360" />
            </Array>
          </mxGeometry>
        </mxCell>
        <mxCell id="Czelofwl4nYaJcHQkH2W-29" value="" style="swimlane;startSize=0;" parent="Czelofwl4nYaJcHQkH2W-24" vertex="1">
          <mxGeometry x="510" y="250" width="90" height="40" as="geometry">
            <mxRectangle x="490" y="235" width="50" height="40" as="alternateBounds" />
          </mxGeometry>
        </mxCell>
        <mxCell id="Czelofwl4nYaJcHQkH2W-31" value="機械学習&lt;br&gt;未定" style="text;html=1;align=center;verticalAlign=middle;resizable=0;points=[];autosize=1;strokeColor=none;fillColor=none;" parent="Czelofwl4nYaJcHQkH2W-29" vertex="1">
          <mxGeometry x="10" y="5" width="60" height="30" as="geometry" />
        </mxCell>
        <mxCell id="Czelofwl4nYaJcHQkH2W-25" value="Docker&lt;br&gt;" style="text;html=1;strokeColor=none;fillColor=none;align=center;verticalAlign=middle;whiteSpace=wrap;rounded=0;" parent="1" vertex="1">
          <mxGeometry x="490" y="40" width="60" height="30" as="geometry" />
        </mxCell>
        <mxCell id="Czelofwl4nYaJcHQkH2W-37" style="edgeStyle=orthogonalEdgeStyle;rounded=0;orthogonalLoop=1;jettySize=auto;html=1;entryX=0;entryY=0;entryDx=0;entryDy=27.5;entryPerimeter=0;" parent="1" source="Czelofwl4nYaJcHQkH2W-26" target="Czelofwl4nYaJcHQkH2W-18" edge="1">
          <mxGeometry relative="1" as="geometry" />
        </mxCell>
        <mxCell id="Czelofwl4nYaJcHQkH2W-26" value="&lt;span&gt;クローリング&lt;/span&gt;&lt;br&gt;&lt;span&gt;Python&lt;/span&gt;" style="rounded=0;whiteSpace=wrap;html=1;" parent="1" vertex="1">
          <mxGeometry x="350" y="310" width="119" height="50" as="geometry" />
        </mxCell>
      </root>
    </mxGraphModel>
  </diagram>
  <diagram id="9bf8TcuX_tXH_Ghabhe0" name="Page-2">
    <mxGraphModel dx="237" dy="614" grid="1" gridSize="10" guides="1" tooltips="1" connect="1" arrows="1" fold="1" page="1" pageScale="1" pageWidth="827" pageHeight="1169" math="0" shadow="0">
      <root>
        <mxCell id="VewV14G2_pu1wNnqnsa4-0" />
        <mxCell id="VewV14G2_pu1wNnqnsa4-1" parent="VewV14G2_pu1wNnqnsa4-0" />
      </root>
    </mxGraphModel>
  </diagram>
</mxfile>
